<svg aria-hidden="true" style="position: absolute; width: 0; height: 0; overflow: hidden;" version="1.1"
  xmlns="http://www.w3.org/2000/svg" xmlns:xlink="http://www.w3.org/1999/xlink">
  <defs>
    <symbol id="arrow-left" viewBox="0 0 32 32">
      <path fill="none" stroke-linejoin="round" stroke-linecap="round" stroke-miterlimit="4" stroke-width="2.666"
        d="M25.334 16h-18.668M16 25.334l-9.334-9.334 9.334-9.334"></path>
    </symbol>
    <symbol id="arrow-right" viewBox="0 0 32 32">
      <path fill="none" stroke-linejoin="round" stroke-linecap="round" stroke-miterlimit="4" stroke-width="2.666"
        d="M6.666 16h18.668M16 25.334l9.334-9.334-9.334-9.334"></path>
    </symbol>
    <symbol id="close" viewBox="0 0 32 32">
      <path stroke-linejoin="miter" stroke-linecap="butt" stroke-miterlimit="4" stroke-width="2.1333"
        d="M8.533 8.533l14.933 14.933M8.533 23.467l14.933-14.933"></path>
    </symbol>
    <symbol id="heart" viewBox="0 0 32 32">
      <path fill="#ff6b08" style="fill: var(--color1, #ff6b08)"
        d="M16 30.583l-2.24-2.24c-8.32-7.36-13.76-12.32-13.76-18.4 0-4.96 3.84-8.8 8.8-8.8 2.72 0 5.44 1.28 7.2 3.36 1.76-2.080 4.48-3.36 7.2-3.36 4.96 0 8.8 3.84 8.8 8.8 0 6.080-5.44 11.040-13.76 18.4l-2.24 2.24z">
      </path>
    </symbol>
    <symbol id="logo" viewBox="0 0 32 32">
      <path stroke-linejoin="round" stroke-linecap="round" stroke-miterlimit="4" stroke-width="2.6667"
        d="M26.427 2.667h-20.853c-1.605 0-2.907 1.301-2.907 2.907v0 20.853c0 1.605 1.301 2.907 2.907 2.907v0h20.853c1.605 0 2.907-1.301 2.907-2.907v0-20.853c0-1.605-1.301-2.907-2.907-2.907v0zM9.333 2.667v26.667M22.667 2.667v26.667M2.667 16h26.667M2.667 9.333h6.667M2.667 22.667h6.667M22.667 22.667h6.667M22.667 9.333h6.667">
      </path>
    </symbol>
    <symbol id="search" viewBox="0 0 32 32">
      <path stroke-linejoin="round" stroke-linecap="round" stroke-miterlimit="4" stroke-width="2.6667"
        d="M14.667 25.333c5.891 0 10.667-4.776 10.667-10.667s-4.776-10.667-10.667-10.667v0c-5.891 0-10.667 4.776-10.667 10.667s4.776 10.667 10.667 10.667v0zM28 28l-5.8-5.8">
      </path>
    </symbol>
    <symbol id="arrow-top" xmlns="http://www.w3.org/2000/svg" viewBox="0 0 16 16">
      <path
        d="M16 8A8 8 0 1 0 0 8a8 8 0 0 0 16 0zm-7.5 3.5a.5.5 0 0 1-1 0V5.707L5.354 7.854a.5.5 0 1 1-.708-.708l3-3a.5.5 0 0 1 .708 0l3 3a.5.5 0 0 1-.708.708L8.5 5.707V11.5z" />
    </symbol>
    <symbol id="icon-lang-rus" viewBox="0 0 512 512">
      <circle cx="256" cy="256" r="256" fill="#f0f0f0" />
      <path
        d="M496.077 345.043C506.368 317.31 512 287.314 512 256s-5.632-61.31-15.923-89.043H15.923C5.633 194.69 0 224.686 0 256s5.633 61.31 15.923 89.043L256 367.304l240.077-22.261z"
        fill="#0052b4" />
      <path d="M256 512c110.071 0 203.906-69.472 240.077-166.957H15.923C52.094 442.528 145.929 512 256 512z"
        fill="#d80027" />
    </symbol>
    <symbol id="icon-lang-ukr" viewBox="0 0 512 512">
      <circle cx="256" cy="256" r="256" fill="#ffda44" />
      <path d="M0 256C0 114.616 114.616 0 256 0s256 114.616 256 256" fill="#338af3" />
    </symbol>
    <symbol id="icon-lang-usa" viewBox="0 0 512 512">
      <circle cx="256" cy="256" r="256" fill="#f0f0f0" />
      <g fill="#d80027">
        <path
          d="M244.87 256H512c0-23.106-3.08-45.49-8.819-66.783H244.87V256zM244.87 122.435h229.556a257.35 257.35 0 00-59.07-66.783H244.87v66.783zM256 512c60.249 0 115.626-20.824 159.356-55.652H96.644C140.374 491.176 195.751 512 256 512zM37.574 389.565h436.852a254.474 254.474 0 0028.755-66.783H8.819a254.474 254.474 0 0028.755 66.783z" />
      </g>
      <path
        d="M118.584 39.978h23.329l-21.7 15.765 8.289 25.509-21.699-15.765-21.699 15.765 7.16-22.037a257.407 257.407 0 00-49.652 55.337h7.475l-13.813 10.035a255.58 255.58 0 00-6.194 10.938l6.596 20.301-12.306-8.941a253.567 253.567 0 00-8.372 19.873l7.267 22.368h26.822l-21.7 15.765 8.289 25.509-21.699-15.765-12.998 9.444A258.468 258.468 0 000 256h256V0c-50.572 0-97.715 14.67-137.416 39.978zm9.918 190.422l-21.699-15.765L85.104 230.4l8.289-25.509-21.7-15.765h26.822l8.288-25.509 8.288 25.509h26.822l-21.7 15.765 8.289 25.509zm-8.289-100.083l8.289 25.509-21.699-15.765-21.699 15.765 8.289-25.509-21.7-15.765h26.822l8.288-25.509 8.288 25.509h26.822l-21.7 15.765zM220.328 230.4l-21.699-15.765L176.93 230.4l8.289-25.509-21.7-15.765h26.822l8.288-25.509 8.288 25.509h26.822l-21.7 15.765 8.289 25.509zm-8.289-100.083l8.289 25.509-21.699-15.765-21.699 15.765 8.289-25.509-21.7-15.765h26.822l8.288-25.509 8.288 25.509h26.822l-21.7 15.765zm0-74.574l8.289 25.509-21.699-15.765-21.699 15.765 8.289-25.509-21.7-15.765h26.822l8.288-25.509 8.288 25.509h26.822l-21.7 15.765z"
        fill="#0052b4" />
    </symbol>
  </defs>
</svg>