<svg xmlns="http://www.w3.org/2000/svg" viewBox="0 0 512 512" style="enable-background:new 0 0 512 512" xml:space="preserve"><path style="fill:#fff" d="M465.455 151.276h-51.793l-240 256h291.793c12.858 0 23.273-10.415 23.273-23.273V174.549c-.001-12.858-10.415-23.273-23.273-23.273zM46.545 407.276c-12.835 0-23.273-10.438-23.273-23.273V174.549c0-12.835 10.438-23.273 23.273-23.273h104.727c4.084 0 7.878-2.141 9.972-5.644L189.37 98.75c2.095-3.479 5.911-5.644 9.972-5.644h113.28c4.061 0 7.889 2.164 9.972 5.655l28.125 46.883c.57.943 1.28 1.769 2.06 2.502L109.87 407.276H46.545z"/><path style="fill:#72c6ef" d="M214.458 363.768A104.283 104.283 0 0 0 256 372.367c57.844 0 104.727-46.883 104.727-104.727 0-17.164-4.212-33.315-11.52-47.604L214.458 363.768zM256 162.913c-57.844 0-104.727 46.883-104.727 104.727 0 30.324 12.963 57.553 33.571 76.684l143.104-152.646c-18.77-17.792-44.056-28.765-71.948-28.765zm0 58.182c-25.67 0-46.545 20.876-46.545 46.545 0 6.423-5.213 11.636-11.636 11.636-6.423 0-11.636-5.213-11.636-11.636 0-38.505 31.313-69.818 69.818-69.818 6.423 0 11.636 5.213 11.636 11.636-.001 6.423-5.214 11.637-11.637 11.637z"/><path style="fill:#00384e" d="M384 209.458c0 6.423 5.213 11.636 11.636 11.636h58.182c6.423 0 11.636-5.213 11.636-11.636v-23.273c0-6.423-5.213-11.636-11.636-11.636h-58.182c-6.423 0-11.636 5.213-11.636 11.636v23.273zM256 360.731c-11.613 0-22.691-2.234-32.943-6.132l-16.908 18.025c15.139 7.215 32 11.38 49.85 11.38 64.163 0 116.364-52.201 116.364-116.364 0-20.527-5.388-39.796-14.755-56.564l-16.943 18.071c5.353 11.753 8.425 24.762 8.425 38.493.001 51.328-41.762 93.091-93.09 93.091z"/><path style="fill:#00384e" d="M465.455 128.004H435.48l-21.818 23.273h51.793c12.835 0 23.273 10.438 23.273 23.273v209.455c0 12.835-10.438 23.273-23.273 23.273H173.661l-21.818 23.273h313.612c25.67 0 46.545-20.876 46.545-46.545V174.549c0-25.67-20.876-46.545-46.545-46.545zM450.141 61.339c-4.689-4.41-12.067-4.177-16.454.524l-62.01 66.141h-4.364l-24.739-41.228c-6.272-10.461-17.734-16.954-29.929-16.954h-113.28c-12.195 0-23.668 6.493-29.929 16.954l-24.739 41.228H46.545C20.876 128.004 0 148.879 0 174.549v209.455c0 25.67 20.876 46.545 46.545 46.545h41.507l-3.444 3.677c-4.399 4.689-4.154 12.055.524 16.454a11.595 11.595 0 0 0 7.959 3.142c3.107 0 6.202-1.233 8.483-3.677L450.665 77.781c4.398-4.689 4.166-12.055-.524-16.442zM46.545 407.276c-12.835 0-23.273-10.438-23.273-23.273V174.549c0-12.835 10.438-23.273 23.273-23.273h104.727c4.084 0 7.878-2.141 9.972-5.644L189.37 98.75c2.095-3.479 5.911-5.644 9.972-5.644h113.28c4.061 0 7.889 2.164 9.972 5.655l28.125 46.883c.57.943 1.28 1.769 2.06 2.502l-25.821 27.543C307.34 160.434 282.74 151.276 256 151.276c-64.163 0-116.364 52.201-116.364 116.364 0 29.44 11.055 56.285 29.161 76.777l-58.927 62.86H46.545zM310.97 192.76 184.832 327.3c-13.603-16.163-21.923-36.911-21.923-59.66 0-51.328 41.763-93.091 93.091-93.091 20.596 0 39.552 6.842 54.97 18.211z"/><path style="fill:#faa85f" d="M93.091 395.64H46.545c-6.423 0-11.636-5.213-11.636-11.636V174.549c0-6.423 5.213-11.636 11.636-11.636H93.09c6.423 0 11.636 5.213 11.636 11.636v209.455c.001 6.423-5.212 11.636-11.635 11.636z"/></svg>